PathFileType	4	(X/Y/Z)	C:/Users/beibeiliu/ov580/test_trc\sequence.40_training_dense_left.trc
DataRate	CameraRate	NumFrames	NumMarkers	Units	OrigDataRate	OrigDataStartFrame	OrigNumFrames
120	120	16	19	mm	120	54	80
Frame#	Time	ThumbCMC			ThumbMCP			ThumbIP			ThumbTip			IndexMCP			IndexPIP			IndexTip			MiddleMCP			MiddlePIP			MiddleTip			RingMCP			RingPIP			RingTip			PinkyMCP			PinkyPIP			PinkyTip			BackHand1			BackHand2			BackHand3	
		X0	Y0	Z0	X1	Y1	Z1	X2	Y2	Z2	X3	Y3	Z3	X4	Y4	Z4	X5	Y5	Z5	X6	Y6	Z6	X7	Y7	Z7	X8	Y8	Z8	X9	Y9	Z9	X10	Y10	Z10	X11	Y11	Z11	X12	Y12	Z12	X13	Y13	Z13	X14	Y14	Z14	X15	Y15	Z15	X16	Y16	Z16	X17	Y17	Z17	X18	Y18	Z18	
53	0.441667	-214.733	95.351	79.6011	-203.205	107.244	50.5873	-197.132	113.671	27.7212	-189.601	112.929	10.8979	-232.517	77.3906	17.791	-214.745	85.448	-4.14112	-192.358	95.6624	-6.23061	-230.958	58.5579	10.3544	-210.293	65.5039	-10.2613	-187.145	79.2225	6.12141	-221.682	43.4911	19.0076	-205.168	49.3906	-0.176566	-187.181	66.8817	9.16699	-208.288	29.536	31.7048	-197.565	37.9794	9.87123	-183.058	57.8098	13.5008	-222.032	39.6034	70.1287	-219.944	42.9316	92.8224	-236.029	67.1626	76.0073	
54	0.45	-227.731	73.5821	70.3711	-218.166	88.363	49.1794	-213.675	96.5392	25.2336	-204.816	99.3495	8.25466	-225.258	49.3814	11.8346	-208.754	65.2398	-9.38998	-193.964	82.9455	-8.24842	-211.256	29.7082	10.2389	-196.585	48.0595	-10.4372	-185.61	72.1865	6.45596	-197.218	21.3804	20.9755	-183.083	36.5905	0.564918	-179.631	59.2051	12.1072	-183.382	16.6434	31.8465	-174.548	27.9996	13.1287	-173.853	52.3144	18.5887	-207.528	21.6353	66.6174	-207.29	27.0042	92.4721	-230.716	41.4571	72.0289	
55	0.458333	-228.083	55.2842	68.8962	-223.565	73.305	43.4563	-217.167	79.1534	23.8868	-212.101	89.1471	3.10591	-214.012	30.8786	12.2698	-200.936	48.9767	-7.86659	-190.361	73.3174	-7.08044	-197.456	17.7567	10.8978	-184.619	37.502	-10.1568	-179.23	62.0473	6.45545	-184.456	13.5924	24.9512	-169.998	31.9156	3.08197	-173.027	54.0002	14.6103	-166.375	11.9207	39.395	-160.103	22.1272	18.7091	-164.254	51.0263	24.0835	-197.947	14.8118	67.8307	-203.701	17.7358	90.4225	-224.241	22.3788	73.2638	
56	0.466667	-228.517	50.8903	66.3983	-223.759	69.5219	43.6227	-218.929	77.4806	22.338	-212.128	85.8286	5.67641	-210.786	28.6949	9.41024	-199.514	46.8757	-7.62679	-190.433	70.5302	-7.0231	-191.306	14.3831	10.14	-177.187	35.7525	-6.51744	-177.238	61.0754	12.7514	-178.445	11.2839	26.8613	-165.309	29.4329	5.99396	-172.627	52.7027	18.1323	-165.206	12.0639	43.9203	-154.443	18.887	22.253	-159.363	47.1179	23.9297	-190.698	8.56437	66.1986	-199.439	12.75	94.7924	-221.362	19.7772	68.6201	
57	0.475	-224.95	57.8731	73.3383	-217.865	74.4783	50.0302	-209.252	81.1292	26.2176	-202.393	88.8246	10.0647	-210.073	37.8709	9.45932	-194.701	52.8491	-5.0352	-183.599	77.1657	-2.57238	-192.56	19.0165	11.9005	-178.129	35.5291	-5.64794	-175.183	64.6042	15.4974	-180.112	13.0757	22.7911	-168.508	30.1492	5.38291	-168.795	52.5276	17.3056	-165.552	11.7403	43.9874	-152.529	21.8209	22.5145	-155.539	46.9255	22.8159	-192.809	14.3901	69.5185	-204.574	17.5601	92.6391	-221.48	24.8117	72.9574	
58	0.483333	-223.055	70.2427	76.6596	-210.537	83.6777	53.4277	-204.4	91.3432	33.598	-194.177	96.744	12.6065	-212.549	46.0853	14.7492	-195.797	59.1228	-2.38689	-175.985	82.8831	0.708582	-197.926	26.8315	15.6341	-179.34	45.5134	-3.44509	-172.41	69.2318	16.243	-186.311	17.4679	26.9066	-170.994	32.74	7.07867	-167.645	54.4825	18.3643	-171.379	11.7633	43.0133	-161.586	19.6373	21.6819	-158.193	47.4972	24.2214	-200.884	20.283	66.9878	-204.733	22.7613	95.603	-222.672	33.2212	73.896	
59	0.491667	-213.563	81.1436	81.4747	-198.787	91.4875	56.7598	-191.461	96.9923	36.1424	-180.853	97.9122	15.5562	-214.763	60.1103	13.6758	-195.795	72.2207	-1.68135	-175.044	81.5422	0.905008	-205.431	35.4692	13.1975	-187.632	48.4573	-4.37956	-168.143	66.1657	15.7358	-196.481	22.8978	22.7481	-180.268	38.2387	6.10562	-166.971	56.8208	23.3051	-183.32	14.426	42.0742	-169.973	22.241	18.5707	-163.958	42.6098	22.9361	-204.772	23.3943	73.0162	-208.596	26.6789	96.3004	-226.713	48.1442	76.9813	
60	0.5	-199.489	89.1907	85.1389	-184.321	94.473	59.6765	-176.128	99.3772	33.7491	-169.531	96.9803	16.8581	-216.566	72.7194	23.6659	-197.373	75.9156	2.27459	-167.163	81.1581	1.9361	-217.13	53.2787	16.6356	-196.436	55.4936	-2.51073	-169.328	70.3718	15.4969	-210.519	33.7244	24.4303	-190.263	40.4535	5.73694	-173.168	55.0556	18.8196	-200.389	21.0596	38.4558	-187.423	22.9194	17.046	-169.886	41.1942	18.7148	-214.827	35.9395	70.1213	-211.955	38.6782	99.735	-220.798	58.7207	82.0952	
61	0.508333	-184.57	92.1549	86.9594	-169.263	94.8284	60.9664	-162.787	97.5469	38.6129	-157.666	97.1369	15.6896	-214.123	84.3382	29.7495	-195.465	83.5532	6.64507	-167.839	83.7137	3.55908	-221.405	67.761	21.4154	-199.809	65.0232	2.00869	-172.839	68.1767	18.422	-220.733	45.1086	30.2538	-203.408	50.6715	8.28857	-178.083	53.0701	21.6102	-215.486	27.61	39.1936	-203.009	32.5412	17.448	-182.884	45.2136	22.0246	-218.805	46.0083	74.6674	-211.91	46.9502	100.599	-216.388	75.9051	91.3247	
62	0.516667	-174.67	91.0561	89.6206	-162.951	92.341	58.7579	-157.971	93.4263	40.4793	-155.511	93.5801	15.3975	-209.638	96.0004	31.9975	-194.823	92.2169	11.3302	-167.702	79.5306	6.65643	-223.358	80.3183	29.4652	-203.273	76.6547	5.76236	-177.671	67.1351	20.5467	-227.817	59.1277	33.5798	-213.069	61.9202	11.939	-184.939	57.9576	23.5236	-224.658	40.3435	44.4679	-214.901	41.1495	20.6701	-188.816	48.5353	22.2591	-218.987	57.7151	85.1374	-209.212	55.609	105.645	-208.962	81.3775	94.8196	
63	0.525	-173.953	91.0982	85.6076	-161.69	93.564	57.4305	-158.426	95.3475	35.9388	-156.271	94.0569	12.5059	-208.894	100.971	31.8781	-192.811	94.4295	8.88445	-168.44	83.0255	3.80812	-225.301	84.9219	26.6393	-208.606	81.5052	4.46401	-179.963	74.1612	19.0541	-229.756	66.494	35.7984	-215.625	67.5414	10.3942	-190.476	61.1001	18.4553	-227.616	48.6421	45.0741	-221.293	46.2938	19.0663	-195.401	55.9899	19.7215	-219.124	63.2281	81.7499	-211.688	53.7666	105.499	-209.233	86.3729	92.2975	
64	0.533333	-178.017	91.8302	71.3526	-161.747	94.6287	46.1409	-159.18	99.2014	18.1668	-158.592	94.3662	-0.117936	-210.543	102.469	16.3464	-193.594	95.7724	-5.32821	-172.379	86.8882	-9.42971	-227.367	90.2034	14.6501	-208.718	81.4844	-8.7115	-182.654	72.8374	7.46065	-234.783	68.2949	20.3261	-220.004	68.6615	-2.96583	-192.77	64.7654	6.23013	-230.373	52.416	30.0137	-223.958	50.9196	5.43997	-198.63	52.2945	4.15591	-222.624	63.8512	68.4104	-211.878	57.9616	90.5141	-208.235	87.2376	78.6115	
65	0.541667	-176.655	88.6609	44.3376	-163.919	90.7188	14.3633	-158.12	90.5616	-3.5013	-157.198	89.6999	-26.89	-210.572	101.873	-6.60375	-196.704	91.6545	-32.7059	-173.992	77.1713	-40.1728	-227.547	88.6566	-12.263	-212.783	76.1236	-35.7414	-188.469	64.1693	-22.959	-233.495	70.9122	-6.41692	-219.63	65.6453	-29.0781	-195.606	56.9601	-20.7241	-234.01	50.8772	1.82309	-226.513	45.0386	-19.4532	-200.735	52.5119	-20.5108	-222.405	62.6691	43.2713	-218.144	57.5107	63.5273	-210.609	84.1757	53.0348	
66	0.55	-170.917	78.2223	8.47121	-156.626	76.1863	-16.7674	-152.984	74.9101	-40.1256	-148.426	72.8832	-61.7586	-205.528	92.9808	-42.5112	-198.429	84.3832	-70.4214	-179.965	66.0839	-81.57	-226.75	78.7106	-47.39	-216.027	70.4684	-72.1879	-190.312	50.6513	-56.9611	-234.078	61.9497	-39.3671	-224.872	52.0135	-63.116	-200.489	44.0048	-57.068	-235.817	42.7118	-24.777	-231.002	39.2244	-49.6555	-206.361	32.2089	-51.963	-222.244	60.1322	10.1862	-216.17	54.744	29.7446	-205.89	80.1074	17.4146	
67	0.558333	-164.768	59.1944	-25.6834	-151.239	48.2947	-47.1147	-142.32	45.7589	-69.9639	-140.157	38.9482	-90.2741	-201.772	70.2885	-78.1339	-199.617	65.3156	-105.069	-189.516	48.4866	-123.431	-222.193	58.4671	-79.2999	-216.984	43.1345	-104.345	-196.087	23.3255	-92.114	-231.853	46.4596	-69.6575	-224.095	32.1037	-93.262	-202.799	19.3834	-85.1143	-238.423	29.8858	-57.7126	-232.998	19.5842	-79.2096	-207.929	11.9196	-77.7179	-221.062	49.98	-23.0609	-213.276	48.3491	-3.52801	-199.171	66.9552	-20.0402	
68	0.566667	-160.229	41.079	-46.8228	-145.723	26.2686	-65.3496	-138.761	19.9888	-82.7706	-127.285	12.669	-101.256	-195.875	50.3258	-105.281	-198.997	43.281	-132.632	-197.81	28.6318	-149.093	-219.317	40.5295	-102.576	-219.252	22.5771	-125.026	-196.815	1.51661	-115.472	-227.088	31.3758	-90.1611	-225.564	14.4725	-113.091	-208.453	-4.27814	-105.957	-238.377	15.7772	-74.8811	-234.094	4.75452	-98.0411	-211.753	-5.76514	-98.4038	-217.61	38.5356	-50.4191	-213.794	40.861	-24.9216	-195.355	52.0277	-46.7467	
